<svg xmlns="http://www.w3.org/2000/svg" viewBox="-255 257 512 512" enable-background="new -255 257 512 512"><path fill="#fff" d="M-204 493c9.4-97.8 87.2-175.6 185-185v40.2c-36.8 4.4-70.8 20.8-97.4 47.4s-43 60.6-47.4 97.4h-40.2zm225-144.8c36.8 4.4 70.8 20.8 97.4 47.4s43 60.6 47.4 97.4h40.2c-9.4-97.8-87.2-175.6-185-185v40.2zm-40 329.6c-36.8-4.4-70.8-20.8-97.4-47.4-26.6-26.6-43-60.6-47.4-97.4h-40.2c9.4 97.8 87.2 175.6 185 185v-40.2zm184.8-144.8c-4.4 36.8-20.8 70.8-47.4 97.4-26.6 26.6-60.6 43-97.4 47.4v40.2c97.8-9.4 175.6-87.2 185-185h-40.2z"/></svg>