<svg xmlns="http://www.w3.org/2000/svg" width="512" height="512" viewBox="0 0 512 512"><path d="M50.969 236.001c9.424-97.803 87.229-175.607 185.031-185.031v40.22c-36.768 4.388-70.789 20.84-97.379 47.43s-43.043 60.612-47.431 97.381h-40.221zm225.031-144.811c36.768 4.388 70.789 20.84 97.379 47.43s43.043 60.612 47.431 97.381h40.222c-9.425-97.803-87.23-175.607-185.032-185.031v40.22zm-40 329.62c-36.769-4.388-70.79-20.84-97.379-47.43-26.589-26.589-43.042-60.61-47.431-97.379h-40.22c9.424 97.803 87.229 175.605 185.03 185.029v-40.22zm184.81-144.809c-4.389 36.769-20.842 70.79-47.431 97.379-26.589 26.59-60.61 43.042-97.379 47.43v40.221c97.801-9.424 175.606-87.227 185.03-185.029h-40.22z"/></svg>